<?xml version="1.0" encoding="UTF-8" standalone="no"?>
<svg
   xmlns:dc="http://purl.org/dc/elements/1.1/"
   xmlns:cc="http://creativecommons.org/ns#"
   xmlns:rdf="http://www.w3.org/1999/02/22-rdf-syntax-ns#"
   xmlns:svg="http://www.w3.org/2000/svg"
   xmlns="http://www.w3.org/2000/svg"
   xmlns:sodipodi="http://sodipodi.sourceforge.net/DTD/sodipodi-0.dtd"
   xmlns:inkscape="http://www.inkscape.org/namespaces/inkscape"
   version="1.1"
   id="svg2"
   xml:space="preserve"
   width="666.66669"
   height="666.66669"
   viewBox="0 0 666.66669 666.66669"
   sodipodi:docname="4247493.ai"><metadata
     id="metadata8"><rdf:RDF><cc:Work
         rdf:about=""><dc:format>image/svg+xml</dc:format><dc:type
           rdf:resource="http://purl.org/dc/dcmitype/StillImage" /></cc:Work></rdf:RDF></metadata><defs
     id="defs6"><clipPath
       clipPathUnits="userSpaceOnUse"
       id="clipPath20"><path
         d="M 0,500 H 500 V 0 H 0 Z"
         id="path18" /></clipPath><clipPath
       clipPathUnits="userSpaceOnUse"
       id="clipPath28"><path
         d="m 107.344,380.84 h 187.82 V 212.379 h -187.82 z"
         id="path26" /></clipPath><clipPath
       clipPathUnits="userSpaceOnUse"
       id="clipPath44"><path
         d="M 209.513,364.942 H 392.656 V 191.545 H 209.513 Z"
         id="path42" /></clipPath></defs><sodipodi:namedview
     pagecolor="#ffffff"
     bordercolor="#666666"
     borderopacity="1"
     objecttolerance="10"
     gridtolerance="10"
     guidetolerance="10"
     inkscape:pageopacity="0"
     inkscape:pageshadow="2"
     inkscape:window-width="640"
     inkscape:window-height="480"
     id="namedview4" /><g
     id="g10"
     inkscape:groupmode="layer"
     inkscape:label="4247493"
     transform="matrix(1.3333333,0,0,-1.3333333,0,666.66667)"><path
       d="M 0,0 H 500 V 500 H 0 Z"
       style="fill:#ffffff;fill-opacity:1;fill-rule:nonzero;stroke:none"
       id="path12" /><g
       id="g14"><g
         id="g16"
         clip-path="url(#clipPath20)"><g
           id="g22"><g
             id="g24" /><g
             id="g36"><g
               clip-path="url(#clipPath28)"
               id="g34"><g
                 transform="translate(110.6559,303.466)"
                 id="g32"><path
                   d="m 0,0 73.422,-86.216 c 6.098,-7.16 17.406,-6.29 22.337,1.718 l 86.637,140.722 c 6.806,11.053 -3.969,24.554 -16.256,20.37 L 6.08,22.089 C -3.177,18.937 -6.34,7.444 0,0"
                   style="fill:#ffe255;fill-opacity:1;fill-rule:nonzero;stroke:none"
                   id="path30" /></g></g></g></g><g
           id="g38"><g
             id="g40" /><g
             id="g52"><g
               clip-path="url(#clipPath44)"
               id="g50"><g
                 transform="translate(320.2252,359.593)"
                 id="g48"><path
                   d="m 0,0 69.509,-89.401 c 5.772,-7.425 2.624,-18.321 -6.219,-21.522 l -155.384,-56.254 c -12.205,-4.419 -23.237,8.873 -16.644,20.054 L -22.862,-1.467 C -17.896,6.956 -6.001,7.719 0,0"
                   style="fill:#fff6b4;fill-opacity:1;fill-rule:nonzero;stroke:none"
                   id="path46" /></g></g></g></g><g
           id="g54"
           transform="translate(315.1188,303.0222)"><path
             d="m 0,0 5.695,53.932 c 1.49,14.808 -12.008,27.54 -29.196,27.54 h -87.617 c -17.187,0 -30.685,-12.732 -29.195,-27.54 L -134.948,0"
             style="fill:none;stroke:#000000;stroke-width:3.226;stroke-linecap:butt;stroke-linejoin:miter;stroke-miterlimit:10;stroke-dasharray:none;stroke-opacity:1"
             id="path56" /></g><g
           id="g58"
           transform="translate(191.4562,182.1569)"><path
             d="M 0,0 V 0 C -2.234,0 -4.118,1.665 -4.393,3.883 L -7.912,32.33 H 7.912 L 4.393,3.883 C 4.118,1.665 2.234,0 0,0 Z"
             style="fill:none;stroke:#000000;stroke-width:3;stroke-linecap:butt;stroke-linejoin:miter;stroke-miterlimit:10;stroke-dasharray:none;stroke-opacity:1"
             id="path60" /></g><g
           id="g62"
           transform="translate(303.191,182.1569)"><path
             d="M 0,0 V 0 C -2.234,0 -4.118,1.665 -4.393,3.883 L -7.912,32.33 H 7.912 L 4.393,3.883 C 4.118,1.665 2.234,0 0,0 Z"
             style="fill:none;stroke:#000000;stroke-width:3;stroke-linecap:butt;stroke-linejoin:miter;stroke-miterlimit:10;stroke-dasharray:none;stroke-opacity:1"
             id="path64" /></g><g
           id="g66"
           transform="translate(322.5211,303.8937)"><path
             d="m 0,0 h -8.337 c -19.104,0 -34.995,-14.695 -36.486,-33.742 l -0.221,-2.813 c -0.308,-3.93 -3.586,-6.962 -7.527,-6.962 h -21.654 -0.973 -21.654 c -3.941,0 -7.22,3.032 -7.527,6.962 l -0.221,2.813 C -106.091,-14.695 -121.981,0 -141.086,0 h -8.338 c -6.626,0 -11.848,-5.646 -11.33,-12.253 l 5.219,-57.675 c 0.464,-5.915 5.399,-10.479 11.332,-10.479 h 43.962 25.043 0.973 25.043 43.962 c 5.933,0 10.868,4.564 11.331,10.479 l 5.22,57.675 C 11.849,-5.646 6.627,0 0,0 Z"
             style="fill:none;stroke:#000000;stroke-width:3;stroke-linecap:butt;stroke-linejoin:miter;stroke-miterlimit:10;stroke-dasharray:none;stroke-opacity:1"
             id="path68" /></g><g
           id="g70"
           transform="translate(313.9586,214.487)"><path
             d="m 0,0 h -132.298 c -2.31,0 -4.183,1.873 -4.183,4.184 V 9 H 4.184 V 4.184 C 4.184,1.873 2.311,0 0,0 Z"
             style="fill:none;stroke:#000000;stroke-width:3;stroke-linecap:butt;stroke-linejoin:miter;stroke-miterlimit:10;stroke-dasharray:none;stroke-opacity:1"
             id="path72" /></g><g
           id="g74"
           transform="translate(206.8908,293.5773)"><path
             d="M 0,0 C 0,0 35.653,15.225 80.788,0"
             style="fill:none;stroke:#000000;stroke-width:2.036;stroke-linecap:butt;stroke-linejoin:miter;stroke-miterlimit:10;stroke-dasharray:none;stroke-opacity:1"
             id="path76" /></g><g
           id="g78"
           transform="translate(177.4772,233.3259)"><path
             d="M 0,0 H 140.665"
             style="fill:none;stroke:#000000;stroke-width:2;stroke-linecap:butt;stroke-linejoin:miter;stroke-miterlimit:10;stroke-dasharray:none;stroke-opacity:1"
             id="path80" /></g></g></g><text
       transform="matrix(1,0,0,-1,144.6938,137.2324)"
       style="font-variant:normal;font-weight:normal;font-stretch:normal;font-size:38.9018px;font-family:Viga;-inkscape-font-specification:Viga-Regular;writing-mode:lr-tb;fill:#000000;fill-opacity:1;fill-rule:nonzero;stroke:none"
       id="text84"><tspan
         x="0 22.952063 48.938465 74.380241 101.5726 113.43765 135.65057 161.63698 187.07875"
         y="0"
         sodipodi:role="line"
         id="tspan82">FURNITURE</tspan></text><text
       transform="matrix(1,0,0,-1,144.269,115.5059)"
       style="font-variant:normal;font-weight:normal;font-stretch:normal;font-size:14.8573px;font-family:'Uni Sans Demo Thin CAPS';-inkscape-font-specification:UniSansDemo-ThinCAPS;writing-mode:lr-tb;fill:#000000;fill-opacity:1;fill-rule:nonzero;stroke:none"
       id="text88"><tspan
         x="0 12.970423 21.082508 37.380966 51.970837 65.951553 78.803116 92.33812 106.76456 114.87664 128.0105 142.60037 158.89882 171.52753 184.89909 199.32553"
         y="0"
         sodipodi:role="line"
         id="tspan86">A MODERN COMPANY</tspan></text></g></svg>
